<?xml version="1.0" standalone="no"?>
<!DOCTYPE svg PUBLIC "-//W3C//DTD SVG 20010904//EN"
 "http://www.w3.org/TR/2001/REC-SVG-20010904/DTD/svg10.dtd">
<svg version="1.0" xmlns="http://www.w3.org/2000/svg"
 width="1020.000000pt" height="750.000000pt" viewBox="0 0 1020.000000 750.000000"
 preserveAspectRatio="xMidYMid meet">

<g transform="translate(0.000000,750.000000) scale(0.100000,-0.100000)"
fill="#000000" stroke="none">
<path d="M3555 7485 c-11 -8 -63 -19 -115 -25 -77 -9 -107 -17 -160 -46 -36
-20 -78 -48 -95 -64 -16 -15 -45 -30 -63 -33 -59 -12 -242 -151 -242 -185 0
-4 -20 -15 -45 -25 -25 -11 -56 -32 -69 -47 -32 -39 -82 -162 -95 -235 -47
-273 -50 -304 -27 -359 18 -42 61 -76 98 -76 24 0 28 -3 23 -22 -3 -13 -14
-68 -26 -123 -12 -55 -32 -126 -45 -157 -38 -90 -31 -289 11 -338 24 -28 67
-145 75 -205 8 -57 7 -63 -26 -116 -82 -135 -92 -191 -46 -255 35 -48 101
-108 141 -129 35 -18 35 -14 20 -88 -11 -55 -29 -78 -29 -37 0 14 -15 27 -50
45 -60 30 -77 31 -105 5 l-21 -20 -124 55 c-67 31 -150 72 -183 93 -54 33 -68
37 -126 37 -110 0 -172 -48 -240 -184 -39 -79 -498 -772 -567 -856 -27 -33
-119 -131 -204 -219 -85 -87 -160 -166 -165 -175 -6 -9 -44 -88 -84 -176 -275
-598 -592 -1157 -874 -1543 l-97 -133 0 -925 0 -924 4974 0 4974 0 40 103
c188 483 254 940 182 1247 -17 72 -43 134 -109 265 -141 276 -300 532 -799
1287 -165 249 -316 482 -335 518 -65 118 -488 1087 -673 1543 l-65 157 16 146
c30 288 17 382 -61 461 -106 106 -246 120 -371 37 -49 -32 -56 -33 -95 -25
-96 22 -319 34 -518 28 -304 -8 -836 -83 -1007 -141 -90 -31 -88 -29 -245
-139 -73 -51 -137 -96 -143 -99 -7 -4 -10 69 -10 210 0 238 -12 326 -64 472
-35 99 -81 175 -153 254 -43 48 -68 89 -104 170 -25 58 -55 111 -65 116 -9 6
-21 20 -24 32 -14 45 -169 328 -181 328 -6 0 -34 30 -62 68 -98 131 -229 231
-372 282 -47 17 -93 35 -104 41 -34 20 -285 32 -434 21 -123 -9 -144 -8 -190
7 -29 10 -60 25 -70 34 -11 10 -35 17 -59 17 -22 0 -60 7 -84 16 -42 14 -182
45 -204 43 -5 0 -19 -6 -30 -14z m-50 -631 c72 -19 133 -19 300 1 164 19 216
10 236 -43 6 -15 15 -82 19 -150 6 -77 15 -135 26 -158 21 -44 69 -77 217
-149 180 -87 187 -101 221 -392 23 -195 40 -237 118 -298 24 -19 25 -27 31
-140 7 -137 24 -229 63 -334 67 -181 231 -353 401 -420 l48 -19 12 -80 c16
-101 42 -173 94 -252 50 -78 132 -158 167 -165 59 -12 76 -21 103 -55 45 -56
69 -137 69 -233 0 -303 -226 -584 -621 -771 -211 -100 -375 -141 -537 -134
-83 3 -107 8 -157 33 -70 34 -137 93 -170 149 -32 56 -75 192 -75 239 0 29
-13 60 -50 122 -27 46 -67 133 -88 194 -38 109 -38 111 -18 117 144 44 483
205 621 296 109 72 225 184 257 250 31 63 43 108 28 108 -5 0 -10 -8 -10 -18
0 -11 -14 -46 -30 -80 -83 -166 -371 -350 -810 -519 -271 -105 -419 -144 -552
-145 -72 -1 -84 2 -160 40 -46 23 -94 50 -107 60 l-24 19 23 42 c13 22 27 41
32 41 4 0 27 -14 50 -30 79 -58 150 -60 164 -5 7 28 -10 107 -37 178 -11 26
-19 62 -19 78 0 53 -99 290 -137 327 -50 51 -45 59 46 64 63 4 89 10 132 35
30 16 66 33 82 37 15 3 27 10 27 14 0 9 -166 70 -289 107 -92 27 -135 31 -178
14 -24 -9 -37 -6 -91 23 -60 31 -63 34 -57 63 3 17 9 53 12 81 5 49 4 52 -20
58 -32 8 -129 95 -158 143 -20 33 -21 40 -10 82 16 59 68 147 198 332 94 134
105 155 110 203 6 58 -2 106 -17 106 -6 0 -5 -11 1 -27 13 -33 3 -121 -16
-146 -12 -17 -16 -17 -50 -3 -42 18 -114 21 -162 7 -46 -13 -66 13 -71 92 l-4
62 59 1 c32 1 77 7 101 13 l42 12 0 57 c0 83 -12 95 -99 100 -76 5 -79 7 -61
58 6 16 23 94 40 173 30 147 58 219 127 335 53 89 68 103 152 135 42 16 101
41 131 55 48 23 68 26 160 26 65 0 129 -6 165 -16z m4563 -1090 c15 -11 21
-22 17 -33 -4 -9 -36 -110 -72 -226 -83 -268 -175 -632 -203 -805 -13 -74 -46
-214 -75 -310 -28 -96 -73 -259 -100 -361 l-48 -186 -71 -6 c-62 -6 -79 -3
-138 21 -44 17 -68 33 -68 43 0 37 -31 47 -173 54 -134 7 -141 9 -210 45 -83
43 -140 63 -287 100 l-105 26 -27 50 c-31 55 -78 172 -101 250 l-15 52 152
136 c213 190 508 434 801 662 335 260 666 504 685 504 9 0 26 -7 38 -16z
m-5167 -25 c52 -18 54 -24 20 -73 -36 -52 -57 -66 -101 -66 -28 0 -34 5 -56
55 -14 31 -23 62 -21 70 10 24 103 32 158 14z m4774 -17 l30 -9 -24 -12 c-22
-12 -74 -11 -169 6 -28 4 -31 8 -20 20 10 12 27 14 83 9 38 -4 84 -10 100 -14z
m-4832 -163 c-26 -44 -41 -55 -49 -35 -3 9 -3 27 0 41 5 20 13 25 37 25 l30 0
-18 -31z m-491 -475 c24 -16 102 -56 175 -89 l132 -59 -24 -40 c-14 -23 -28
-42 -33 -44 -5 -1 -53 18 -107 43 -54 25 -100 44 -102 41 -2 -2 116 -64 264
-137 l268 -134 9 -40 c19 -85 -23 -275 -92 -412 -28 -54 -38 -64 -86 -87 -30
-14 -58 -26 -63 -26 -4 0 -48 -22 -96 -49 l-88 -50 -19 21 c-29 32 -43 74 -36
113 14 72 123 159 172 136 13 -6 24 -7 24 -2 0 5 -7 12 -16 15 -14 5 -15 17
-9 74 8 72 16 94 48 130 20 21 11 32 -10 11 -17 -17 -111 1 -142 27 -15 12
-47 50 -71 83 -24 33 -46 59 -48 57 -6 -7 17 -44 64 -101 25 -31 42 -59 40
-64 -6 -9 -104 -46 -148 -55 -20 -5 -42 4 -94 39 -37 25 -71 44 -75 43 -7 -3
32 -33 103 -81 17 -11 16 -19 -8 -127 -45 -199 -99 -341 -157 -406 -36 -42
-30 -57 8 -17 58 61 148 292 175 449 l13 71 51 12 c28 6 74 22 103 35 43 20
60 23 100 17 40 -6 47 -10 45 -26 -2 -11 -8 -51 -14 -88 -10 -62 -13 -69 -42
-81 -47 -19 -94 -64 -117 -108 -26 -51 -19 -102 22 -158 l30 -41 62 36 c68 40
129 69 167 80 20 6 14 -4 -34 -56 -164 -178 -382 -337 -653 -472 -94 -48 -135
-87 -229 -217 -258 -358 -502 -1003 -688 -1822 -62 -270 -118 -566 -141 -741
-17 -136 -39 -237 -101 -476 -41 -160 -51 -225 -23 -155 31 79 130 507 139
604 13 138 45 317 60 336 7 7 28 24 48 36 125 77 511 -67 797 -297 93 -75 205
-152 358 -246 161 -99 186 -114 193 -121 10 -11 -114 -145 -283 -304 l-152
-144 -999 0 -999 0 -6 128 c-4 70 -7 479 -7 908 l0 782 83 113 c301 410 587
912 873 1528 74 162 109 225 139 256 152 154 297 308 334 355 73 91 541 800
573 868 33 70 84 126 132 148 19 9 56 13 98 11 56 -2 75 -8 110 -33z m5918
-209 c86 -204 85 -190 10 -198 -23 -2 -27 5 -59 98 -26 77 -34 123 -38 200 -3
55 -2 97 2 93 4 -4 42 -91 85 -193z m-5504 84 c57 -24 66 -36 52 -63 -19 -37
-80 -117 -85 -112 -3 3 9 30 27 61 18 32 29 60 24 65 -5 4 -26 15 -46 23 -36
15 -38 15 -53 -6 -22 -31 -19 -39 16 -35 21 2 35 -3 42 -13 17 -27 1 -49 -37
-49 -35 0 -50 17 -40 45 11 27 -5 16 -21 -16 -9 -17 -19 -28 -22 -25 -7 7 80
146 92 146 2 0 25 -9 51 -21z m-39 -45 c-3 -3 -12 -4 -19 -1 -8 3 -5 6 6 6 11
1 17 -2 13 -5z m323 -149 c36 -23 70 -48 76 -56 20 -25 63 -373 66 -539 1 -77
-2 -91 -29 -145 -17 -33 -44 -76 -59 -96 -16 -20 -40 -66 -54 -102 -24 -66
-25 -67 -62 -67 -47 0 -73 24 -88 80 -12 46 -17 37 68 155 36 50 78 119 95
153 l30 64 1 237 c1 203 -1 240 -15 262 -9 13 -71 55 -138 93 -66 37 -118 72
-115 77 6 11 118 -48 224 -116z m-57 -7 c43 -25 72 -49 78 -65 12 -32 12 -377
0 -460 -10 -68 -36 -116 -138 -260 -32 -46 -75 -107 -96 -137 -29 -44 -46 -58
-78 -68 -29 -8 -46 -9 -57 -1 -25 15 -41 70 -41 140 -1 61 -1 62 63 140 36 43
74 84 85 90 27 17 72 107 106 213 27 86 45 250 32 302 -5 18 -29 35 -97 68
-49 24 -90 48 -90 52 0 5 12 26 26 48 l27 40 56 -32 c31 -17 87 -49 124 -70z
m277 12 c80 -28 127 -48 105 -45 -22 3 -89 8 -149 12 -101 6 -112 8 -157 39
-28 18 -43 35 -36 37 35 15 105 2 237 -43z m69 -66 c48 -5 59 -10 50 -20 -18
-22 -100 -44 -165 -44 l-62 0 -4 35 -4 35 62 0 c33 0 89 -3 123 -6z m-122
-190 c39 -68 94 -216 108 -289 8 -38 23 -96 35 -129 12 -34 20 -76 18 -100
l-3 -41 -41 1 c-53 1 -142 60 -135 90 14 59 -5 425 -26 498 -9 32 20 13 44
-30z m5323 -274 c146 -342 330 -753 371 -830 23 -41 193 -304 378 -585 478
-722 666 -1027 787 -1279 77 -160 95 -237 101 -432 5 -158 5 -161 -18 -182
-26 -25 -76 -29 -104 -8 -17 12 -18 27 -16 179 3 194 -6 243 -81 417 -119 279
-365 702 -863 1485 -259 408 -315 501 -448 751 -111 209 -315 643 -305 648 33
17 104 41 109 37 3 -3 43 -94 89 -201z m-2932 -9 c50 -26 76 -56 108 -124 37
-83 50 -188 36 -296 -59 -441 -458 -815 -1025 -960 -291 -75 -475 -57 -602 60
-61 56 -91 109 -115 204 -29 112 -25 334 7 439 5 18 7 17 19 -6 8 -15 18 -59
24 -100 30 -216 128 -340 309 -390 162 -45 391 0 660 128 327 156 536 376 602
632 38 148 17 309 -51 393 -34 43 -27 48 28 20z m447 -33 c17 1 59 4 95 7 54
6 75 3 125 -15 146 -55 227 -80 325 -100 132 -28 261 -71 322 -109 51 -32 80
-38 238 -47 107 -6 130 -13 130 -44 0 -17 15 -25 110 -62 22 -8 15 -13 -76
-52 -188 -80 -366 -204 -430 -300 -63 -95 -124 -307 -124 -431 0 -50 2 -55 40
-85 60 -47 65 -62 41 -123 -10 -29 -22 -75 -26 -102 -4 -28 -14 -72 -22 -100
-11 -36 -17 -115 -20 -275 -5 -191 -2 -252 16 -405 49 -396 132 -933 175
-1117 l13 -58 -48 -41 c-58 -48 -134 -147 -161 -209 -13 -29 -23 -85 -29 -157
-8 -102 -40 -255 -68 -325 l-11 -28 -1925 0 c-1266 0 -1925 3 -1925 10 0 5
-25 144 -54 309 -50 274 -74 439 -92 643 l-6 76 36 10 c19 6 43 8 53 6 12 -3
28 10 49 39 55 75 81 138 88 212 11 109 61 348 101 480 53 178 118 303 205
399 188 206 369 489 384 600 3 27 23 87 45 133 36 78 38 86 29 140 -10 67 -27
123 -36 123 -10 0 -46 -60 -152 -250 -123 -221 -153 -270 -228 -374 -147 -203
-272 -418 -272 -466 0 -8 -30 -56 -66 -105 -116 -157 -141 -228 -174 -499 -23
-188 -35 -254 -52 -306 l-12 -35 -7 40 c-4 22 -8 108 -8 190 -1 253 27 559 68
728 14 60 17 94 11 153 -4 41 -10 78 -14 81 -15 15 -27 -18 -33 -85 -3 -40
-11 -76 -18 -82 -22 -18 -74 1 -109 41 -43 46 -56 91 -57 194 -1 44 -4 112 -8
150 l-6 70 -22 -66 c-48 -145 -40 -214 36 -319 61 -84 113 -170 145 -244 23
-51 25 -67 20 -123 -4 -34 -11 -63 -15 -63 -5 0 -9 4 -9 8 0 12 -167 290 -207
345 -20 26 -37 46 -40 44 -8 -9 27 -126 71 -234 54 -135 87 -202 137 -275 35
-52 49 -88 34 -88 -4 0 -19 7 -36 16 -16 8 -38 13 -47 10 -9 -3 -37 -10 -61
-16 l-43 -11 6 -40 c5 -29 3 -39 -7 -39 -14 0 -73 60 -133 134 -27 34 -40 44
-42 33 -4 -21 34 -95 66 -129 14 -15 23 -31 19 -34 -13 -14 -124 64 -214 151
-51 50 -93 87 -93 84 0 -30 130 -166 273 -287 42 -36 77 -69 77 -73 0 -37
-143 -36 -250 1 -84 30 -169 72 -207 104 -17 14 -34 26 -37 26 -3 0 -6 -18 -6
-41 0 -56 41 -138 118 -232 l65 -80 -24 -18 c-43 -34 -129 -70 -202 -86 -54
-11 -108 -14 -217 -10 -128 5 -156 9 -240 37 -58 20 -125 34 -172 37 -71 5
-80 4 -124 -22 -64 -38 -45 -12 25 33 31 19 95 72 143 117 64 60 102 88 140
101 45 17 53 24 61 54 12 48 44 79 89 86 30 5 45 16 77 59 57 75 81 125 81
167 0 76 20 138 59 179 21 21 45 39 54 39 13 0 17 9 17 33 0 38 38 81 82 92
39 10 93 73 112 133 19 55 77 117 121 128 16 4 39 27 62 61 41 62 84 98 132
110 28 7 36 16 51 56 10 27 39 70 64 97 25 27 46 53 46 58 0 16 91 112 121
127 35 19 58 20 41 3 -19 -19 -14 -66 8 -88 13 -13 33 -20 59 -20 33 0 44 5
64 33 14 17 28 43 32 57 4 14 12 34 19 45 7 11 18 39 24 62 12 42 52 83 79 83
8 0 28 9 43 20 63 45 305 130 369 130 41 0 244 105 300 156 28 25 67 68 87 97
45 62 183 217 193 217 4 0 17 -17 28 -37 20 -36 20 -42 7 -108 -65 -329 14
-593 207 -686 106 -52 273 -65 434 -35 183 35 454 141 599 234 84 53 203 151
263 215 265 284 358 668 218 902 l-34 56 172 -6 c95 -4 186 -7 202 -7z m-3410
-290 c1 -115 22 -158 80 -158 54 0 83 16 117 65 l32 46 22 -50 c20 -44 27 -51
64 -61 57 -15 75 -7 95 48 10 26 26 64 36 84 l19 37 59 -40 c137 -92 221 -106
403 -69 82 17 239 63 294 86 7 3 22 -23 37 -63 26 -70 47 -133 47 -140 0 -2
-26 -32 -58 -66 -32 -34 -90 -103 -130 -154 -91 -115 -107 -128 -232 -193 -72
-37 -132 -59 -204 -75 -122 -28 -201 -57 -325 -120 -95 -49 -123 -77 -136
-136 -5 -23 -13 -27 -52 -33 -25 -3 -60 -6 -77 -6 -84 0 -184 -67 -227 -151
-10 -20 -30 -45 -44 -55 -14 -11 -40 -48 -58 -82 -27 -54 -38 -66 -71 -77 -46
-16 -78 -44 -121 -108 -22 -33 -48 -56 -84 -73 -52 -26 -92 -77 -106 -136 -8
-33 -72 -108 -92 -108 -43 0 -103 -64 -103 -109 0 -12 -6 -21 -14 -21 -22 0
-84 -75 -95 -117 -6 -21 -11 -60 -11 -88 0 -54 -23 -102 -88 -187 -27 -37 -43
-48 -63 -48 -36 0 -87 -44 -97 -83 -6 -26 -18 -37 -64 -60 -33 -16 -95 -63
-147 -111 -70 -65 -167 -136 -186 -136 -7 0 73 359 131 590 201 802 441 1378
706 1688 46 54 72 73 193 138 180 98 369 223 470 312 44 39 80 71 80 71 0 1 0
-23 0 -51z m5051 -125 c66 -28 132 -68 306 -188 170 -117 423 -444 708 -913
116 -192 131 -238 134 -402 3 -141 19 -192 83 -263 118 -132 261 -443 323
-701 17 -69 25 -86 64 -125 34 -35 62 -82 114 -196 38 -82 83 -179 100 -215
31 -66 54 -150 33 -120 -6 8 -11 23 -11 33 0 10 -12 38 -26 62 -72 124 -174
154 -515 155 -482 0 -838 -70 -1163 -229 -206 -102 -269 -163 -289 -282 -12
-71 -13 -73 -24 -44 -6 17 -18 61 -27 99 -20 88 -47 132 -135 228 -65 69 -79
93 -151 250 -61 134 -85 199 -105 288 -26 118 -40 152 -114 278 -49 82 -48 76
-100 527 -43 360 -61 555 -61 639 0 71 16 152 39 194 17 32 -8 84 -54 112
l-38 23 6 91 c12 175 78 358 161 440 96 96 266 198 441 263 115 43 193 42 301
-4z m1745 -1564 c56 -5 110 -14 120 -20 43 -23 369 -639 425 -804 24 -69 28
-100 32 -227 4 -128 2 -148 -11 -148 -8 0 -22 -3 -30 -6 -37 -14 -447 660
-634 1041 -40 82 -73 153 -73 157 0 7 24 15 51 17 9 0 63 -4 120 -10z m-306
-1329 c251 -14 325 -46 384 -164 21 -43 23 -57 17 -121 -4 -48 -1 -110 9 -182
16 -106 61 -351 71 -385 5 -17 -47 -18 -989 -18 l-995 0 -22 123 c-12 67 -26
135 -31 151 -15 47 -10 128 10 172 45 99 246 216 541 313 181 61 367 93 620
110 174 11 204 11 385 1z m-6385 -579 c28 -156 49 -285 47 -287 -2 -2 -170 -3
-373 -2 l-370 3 133 125 c73 69 170 166 216 217 75 84 83 90 99 77 9 -9 29
-14 44 -12 23 2 40 20 88 92 33 49 61 85 62 80 2 -5 26 -137 54 -293z"/>
<path d="M3415 6256 c-152 -33 -205 -60 -205 -104 0 -36 22 -66 59 -81 25 -11
47 -8 156 18 149 36 165 37 314 11 119 -21 179 -25 197 -12 34 22 45 95 17
111 -10 5 -72 21 -138 36 -142 32 -309 41 -400 21z"/>
<path d="M3455 6009 c-39 -15 -95 -57 -95 -71 0 -6 10 -2 23 9 71 65 147 74
321 39 71 -15 130 -25 133 -23 2 3 -36 14 -84 27 -101 26 -253 35 -298 19z"/>
<path d="M3473 5920 c-42 -31 -83 -85 -83 -112 0 -51 263 -19 379 46 l24 14
-42 27 c-62 39 -116 55 -180 55 -46 -1 -64 -6 -98 -30z m231 -14 c31 -15 55
-33 53 -39 -8 -26 -140 -60 -249 -65 -60 -2 -108 -2 -108 2 0 15 29 62 52 83
66 62 151 68 252 19z"/>
<path d="M2768 5810 c-31 -17 -69 -52 -42 -38 5 2 31 14 58 27 l50 23 50 -21
c76 -33 82 -35 71 -23 -21 22 -91 52 -120 52 -16 -1 -47 -10 -67 -20z"/>
<path d="M3275 5259 c19 -28 35 -62 35 -75 0 -27 -49 -68 -100 -82 -24 -7 -28
-10 -13 -11 60 -3 123 46 123 94 0 32 -53 125 -71 125 -5 0 6 -23 26 -51z"/>
<path d="M2945 5181 l-40 -19 29 -11 c39 -15 168 -10 174 7 5 15 -56 42 -95
42 -15 0 -46 -9 -68 -19z"/>
<path d="M2966 2934 c-6 -61 -28 -152 -90 -369 -27 -92 -75 -324 -99 -479 -17
-102 -13 -105 60 -47 66 52 80 70 98 121 24 67 107 219 202 368 94 147 101
175 67 249 -19 41 -152 177 -201 205 l-30 18 -7 -66z"/>
<path d="M2547 2739 c-22 -79 7 -308 56 -454 l24 -70 6 85 c3 47 16 127 27
178 l22 93 -26 52 c-14 29 -43 72 -64 96 -38 43 -39 44 -45 20z"/>
<path d="M2243 2094 c-9 -24 25 -241 44 -277 32 -63 116 -116 182 -117 l34 0
-42 45 c-22 24 -41 54 -41 65 0 25 -35 96 -102 207 -54 91 -65 102 -75 77z"/>
<path d="M1786 1908 c-25 -35 -20 -88 12 -139 53 -82 202 -198 333 -258 100
-46 120 -47 45 -1 -220 130 -356 278 -356 388 0 37 -12 41 -34 10z"/>
<path d="M3272 1104 c-26 -18 -28 -53 -6 -95 14 -28 14 -34 0 -70 -12 -29 -16
-75 -16 -174 0 -134 0 -135 24 -141 14 -3 34 -3 45 1 12 4 21 2 21 -4 0 -15
12 -14 34 2 17 13 17 17 -13 75 -26 52 -31 73 -31 135 0 49 5 80 15 93 8 10
15 30 15 45 0 14 5 30 11 36 6 6 9 21 7 34 -4 33 -41 37 -62 7 -9 -12 -16 -17
-16 -10 0 6 9 21 19 31 19 19 22 19 72 3 32 -10 54 -24 57 -34 7 -28 24 -21
20 8 -3 24 -11 29 -83 50 -97 28 -86 27 -113 8z m42 -429 c3 -8 1 -15 -4 -15
-6 0 -10 7 -10 15 0 8 2 15 4 15 2 0 6 -7 10 -15z"/>
<path d="M8375 3005 c-52 -318 -320 -663 -725 -936 -156 -105 -256 -217 -367
-410 -51 -90 -88 -179 -75 -179 4 0 26 40 49 88 55 117 151 260 235 348 37 39
118 106 180 149 278 193 458 374 588 594 72 121 138 313 128 372 -3 17 -7 9
-13 -26z"/>
<path d="M7111 1658 c-45 -100 -48 -120 -11 -68 18 25 46 60 62 78 30 35 29
52 -3 52 -15 0 -27 -16 -48 -62z"/>
</g>
</svg>
